<svg width="39" height="39" viewBox="0 0 39 39" fill="none" xmlns="http://www.w3.org/2000/svg">
<path d="M6.50002 16.25L5.35115 17.3989L4.20227 16.25L5.35115 15.1011L6.50002 16.25ZM34.125 29.25C34.125 29.681 33.9538 30.0943 33.6491 30.3991C33.3443 30.7038 32.931 30.875 32.5 30.875C32.069 30.875 31.6557 30.7038 31.351 30.3991C31.0462 30.0943 30.875 29.681 30.875 29.25H34.125ZM13.4761 25.5239L5.35115 17.3989L7.6489 15.1011L15.7739 23.2261L13.4761 25.5239ZM5.35115 15.1011L13.4761 6.97614L15.7739 9.27388L7.6489 17.3989L5.35115 15.1011ZM6.50002 14.625H22.75V17.875H6.50002V14.625ZM34.125 26V29.25H30.875V26H34.125ZM22.75 14.625C25.7669 14.625 28.6601 15.8234 30.7934 17.9567C32.9266 20.0899 34.125 22.9832 34.125 26H30.875C30.875 23.8451 30.019 21.7785 28.4953 20.2548C26.9715 18.731 24.9049 17.875 22.75 17.875V14.625Z" fill="white"/>
</svg>
