<svg width="24" height="24" viewBox="0 0 24 24" fill="none" xmlns="http://www.w3.org/2000/svg">
<path d="M1.64785 16.7475C1.49178 16.9036 1.38372 17.0957 1.3357 17.2998L0.0390507 22.5111C-0.0690032 22.9193 0.0510567 23.3516 0.351206 23.6518C0.57932 23.8799 0.891476 24 1.20363 24C1.29968 24 1.39573 24 1.49178 23.964L6.70237 22.6552C6.91848 22.6071 7.11058 22.4991 7.25465 22.343L19.4407 10.1553L13.8339 4.54784L1.64785 16.7475ZM21.2056 0.729456C20.2331 -0.243152 18.6363 -0.243152 17.6638 0.729456L15.5268 2.86679L21.1336 8.4743L23.2706 6.33696C24.2431 5.36435 24.2431 3.77936 23.2706 2.79475L21.2056 0.729456Z" fill="black"/>
</svg>
