<svg width="24" height="24" viewBox="0 0 24 24" fill="none" xmlns="http://www.w3.org/2000/svg">
<path d="M3.38 15.9499C3.25 16.0799 3.16 16.2399 3.12 16.4099L2.04 20.7499C1.95 21.0899 2.05 21.4499 2.3 21.6999C2.49 21.8899 2.75 21.9899 3.01 21.9899C3.09 21.9899 3.17 21.9899 3.25 21.9599L7.59 20.8699C7.77 20.8299 7.93 20.7399 8.05 20.6099L18.2 10.4599L13.53 5.78994L3.38 15.9499ZM19.67 2.60994C18.86 1.79994 17.53 1.79994 16.72 2.60994L14.94 4.38994L19.61 9.05994L21.39 7.27994C22.2 6.46994 22.2 5.14994 21.39 4.32994L19.67 2.60994Z" fill="white"/>
</svg>
